<svg xmlns="http://www.w3.org/2000/svg" width="48" height="48" viewBox="0 0 48 48" fill="none"><rect width="48" height="48" rx="10" fill="#F3F4F6"></rect><path d="M30.9998 33.9163C32.0367 33.6834 32.8243 33.3006 33.4601 32.6711C35.0832 31.0643 35.0832 28.478 35.0832 23.3055C35.0832 18.133 35.0832 15.5468 33.4601 13.9399C31.8369 12.333 29.2246 12.333 23.9998 12.333C18.7751 12.333 16.1627 12.333 14.5396 13.9399C12.9165 15.5468 12.9165 18.133 12.9165 23.3055C12.9165 28.478 12.9165 31.0643 14.5396 32.6711C15.1754 33.3006 15.963 33.6834 16.9998 33.9163" stroke="#141B34" stroke-width="2" stroke-linecap="round"></path><path d="M12.9165 19.916L35.0832 19.916" stroke="#141B34" stroke-width="2" stroke-linejoin="round"></path><path d="M18.1663 16.416H18.1768" stroke="#374151" stroke-width="2" stroke-linecap="round" stroke-linejoin="round"></path><path d="M22.8328 16.416H22.8433" stroke="#141B34" stroke-width="2" stroke-linecap="round" stroke-linejoin="round"></path><path d="M23.999 25.166C22.3368 25.166 21.259 26.226 19.9844 26.6123C19.4661 26.7694 19.207 26.848 19.1021 26.9587C18.9973 27.0694 18.9666 27.2312 18.9051 27.5548C18.2479 31.0177 19.6844 34.2191 23.1104 35.4652C23.4785 35.5991 23.6626 35.666 24.0008 35.666C24.3391 35.666 24.5231 35.5991 24.8912 35.4652C28.3169 34.2191 29.7521 31.0177 29.0947 27.5548C29.0332 27.2312 29.0025 27.0693 28.8976 26.9586C28.7927 26.8479 28.5336 26.7694 28.0154 26.6124C26.7402 26.2261 25.6613 25.166 23.999 25.166Z" stroke="#141B34" stroke-width="2" stroke-linecap="round" stroke-linejoin="round"></path></svg>