<svg xmlns="http://www.w3.org/2000/svg" width="24" height="25" viewBox="0 0 24 25" fill="none"><path d="M12.0001 14.5C14.2061 14.5 16.0001 12.706 16.0001 10.5C16.0001 8.294 14.2061 6.5 12.0001 6.5C9.79406 6.5 8.00006 8.294 8.00006 10.5C8.00006 12.706 9.79406 14.5 12.0001 14.5ZM12.0001 8.5C13.1031 8.5 14.0001 9.397 14.0001 10.5C14.0001 11.603 13.1031 12.5 12.0001 12.5C10.8971 12.5 10.0001 11.603 10.0001 10.5C10.0001 9.397 10.8971 8.5 12.0001 8.5Z" fill="#FCC001"></path><path d="M11.4201 22.314C11.5893 22.4349 11.7921 22.4998 12.0001 22.4998C12.2081 22.4998 12.4108 22.4349 12.5801 22.314C12.8841 22.099 20.0291 16.94 20.0001 10.5C20.0001 6.089 16.4111 2.5 12.0001 2.5C7.58909 2.5 4.00009 6.089 4.00009 10.495C3.97109 16.94 11.1161 22.099 11.4201 22.314ZM12.0001 4.5C15.3091 4.5 18.0001 7.191 18.0001 10.505C18.0211 14.943 13.6121 18.928 12.0001 20.235C10.3891 18.927 5.97909 14.941 6.00009 10.5C6.00009 7.191 8.69109 4.5 12.0001 4.5Z" fill="#FCC001"></path></svg>