<svg xmlns="http://www.w3.org/2000/svg" width="48" height="48" viewBox="0 0 48 48" fill="none"><g clip-path="url(#clip0_581_81880)"><path d="M38 0H10C4.47715 0 0 4.47715 0 10V38C0 43.5228 4.47715 48 10 48H38C43.5228 48 48 43.5228 48 38V10C48 4.47715 43.5228 0 38 0Z" fill="#F3F4F6"></path><path d="M26.9512 32.1889C26.9512 31.7114 26.9514 31.3905 26.9355 31.1422C26.9278 31.021 26.9166 30.9312 26.9041 30.8622L26.8621 30.7076C26.7589 30.4416 26.5784 30.2368 26.3643 30.1142L26.27 30.0661C26.2171 30.0428 26.1251 30.0151 25.9084 29.9993C25.6827 29.9828 25.3883 29.9826 24.939 29.9826H23.061C22.6117 29.9826 22.3173 29.9828 22.0916 29.9993C21.9833 30.0072 21.9062 30.0178 21.8495 30.0296L21.73 30.0661C21.5069 30.1648 21.3106 30.3492 21.1861 30.5979L21.1379 30.7076C21.1086 30.7831 21.08 30.9002 21.0645 31.1422C21.0486 31.3905 21.0488 31.7114 21.0488 32.1889C21.0488 32.6665 21.0486 32.9874 21.0645 33.2357C21.08 33.4777 21.1086 33.5948 21.1379 33.6703L21.1861 33.78C21.3106 34.0287 21.5069 34.2131 21.73 34.3118L21.8495 34.3483C21.9062 34.3601 21.9833 34.3707 22.0916 34.3786C22.3173 34.3951 22.6117 34.3953 23.061 34.3953H24.939C25.3883 34.3953 25.6827 34.3951 25.9084 34.3786C26.1251 34.3628 26.2171 34.3351 26.27 34.3118L26.3643 34.2637C26.5784 34.1411 26.7589 33.9363 26.8621 33.6703L26.9041 33.5157C26.9166 33.4467 26.9278 33.3569 26.9355 33.2357C26.9514 32.9874 26.9512 32.6665 26.9512 32.1889ZM33.3902 24.0403C33.3902 23.1193 33.3865 22.2968 33.3766 21.5581H14.6234C14.6135 22.2968 14.6098 23.1193 14.6098 24.0403C14.6098 26.4758 14.6112 28.2226 14.789 29.5511C14.9638 30.8572 15.2964 31.6385 15.8695 32.214L16.0791 32.4062C16.224 32.5268 16.3801 32.6334 16.5507 32.728L16.8169 32.8607L16.8902 32.8983C17.2438 33.1012 17.3928 33.542 17.2225 33.9211C17.0518 34.3 16.6224 34.4827 16.2352 34.3546L16.1587 34.3254L15.9586 34.2303C15.5649 34.0337 15.2085 33.7923 14.8854 33.4969L14.7271 33.3444C13.8073 32.4207 13.3923 31.2459 13.1939 29.7642C12.9985 28.3048 13 26.431 13 24.0403C13 21.6498 12.9985 19.7769 13.1939 18.3175C13.3923 16.8356 13.8072 15.6601 14.7271 14.7363C15.6478 13.8119 16.8205 13.3939 18.2988 13.1943C19.7535 12.9979 21.6201 13 24 13C26.38 13 28.2465 12.9979 29.7012 13.1943C31.1795 13.3939 32.3522 13.8119 33.2729 14.7363C34.1928 15.6601 34.6077 16.8356 34.8061 18.3175C34.8937 18.9719 34.9402 19.7095 34.9665 20.5396C34.9859 20.6087 35 20.6805 35 20.7558C35 20.8182 34.9904 20.8783 34.9769 20.9365C34.9983 21.859 35 22.8897 35 24.0403C35 26.431 35.0015 28.3048 34.8061 29.7642C34.6201 31.1535 34.244 32.2732 33.4395 33.1689L33.2729 33.3444C32.8567 33.7623 32.3828 34.0831 31.8413 34.3254C31.4358 34.5064 30.9595 34.3251 30.7775 33.9211C30.5959 33.5169 30.7778 33.0421 31.1831 32.8607C31.5545 32.6945 31.8615 32.4842 32.1305 32.214L32.3349 31.9884C32.7847 31.4354 33.058 30.6939 33.211 29.5511C33.3888 28.2226 33.3902 26.4758 33.3902 24.0403ZM24 14.6047C21.5741 14.6047 19.8362 14.6059 18.5147 14.7843C17.2171 14.9595 16.4417 15.2921 15.8695 15.8666C15.2964 16.4422 14.9638 17.2235 14.789 18.5296C14.7316 18.9577 14.695 19.4294 14.6684 19.9535H33.3316C33.305 19.4294 33.2684 18.9577 33.211 18.5296C33.0362 17.2235 32.7036 16.4422 32.1305 15.8666C31.5583 15.2921 30.7829 14.9595 29.4853 14.7843C28.1638 14.6059 26.4259 14.6047 24 14.6047ZM18.6436 16.7442C19.0881 16.7442 19.4485 17.1034 19.4485 17.5465C19.4485 17.9896 19.0881 18.3488 18.6436 18.3488H18.6341C18.1896 18.3488 17.8293 17.9896 17.8293 17.5465C17.8293 17.1034 18.1896 16.7442 18.6341 16.7442H18.6436ZM22.9363 16.7442C23.3808 16.7442 23.7411 17.1034 23.7411 17.5465C23.7411 17.9896 23.3808 18.3488 22.9363 18.3488H22.9268C22.4823 18.3488 22.122 17.9896 22.122 17.5465C22.122 17.1034 22.4823 16.7442 22.9268 16.7442H22.9363ZM25.0732 27.375C25.0732 26.8484 24.6205 26.3721 24 26.3721C23.3795 26.3721 22.9268 26.8484 22.9268 27.375V28.3779H25.0732V27.375ZM26.6829 28.5116C26.7634 28.5359 26.8435 28.5643 26.9229 28.5994L27.165 28.7216C27.7126 29.0346 28.1336 29.5349 28.3639 30.1288L28.4363 30.3503C28.4975 30.5735 28.5259 30.8027 28.5411 31.0408C28.5609 31.3519 28.561 31.7321 28.561 32.1889C28.561 32.6458 28.5609 33.026 28.5411 33.3371C28.5259 33.5752 28.4975 33.8044 28.4363 34.0276L28.3639 34.2491C28.1336 34.843 27.7126 35.3433 27.165 35.6563L26.9229 35.7785C26.6308 35.9077 26.3311 35.9568 26.0248 35.9791C25.7268 36.0008 25.3645 36 24.939 36H23.061C22.6355 36 22.2732 36.0008 21.9752 35.9791C21.7454 35.9624 21.519 35.9304 21.2972 35.8611L21.0771 35.7785C20.4948 35.5209 20.0295 35.0628 19.7461 34.4977L19.6361 34.2491C19.5224 33.9561 19.4792 33.6544 19.4589 33.3371C19.4391 33.026 19.439 32.6458 19.439 32.1889C19.439 31.7321 19.4391 31.3519 19.4589 31.0408C19.4792 30.7235 19.5224 30.4218 19.6361 30.1288L19.7461 29.8802C20.0295 29.3151 20.4948 28.857 21.0771 28.5994L21.2972 28.5168C21.3037 28.5148 21.3105 28.5136 21.3171 28.5116V27.375C21.3171 25.9076 22.5461 24.7674 24 24.7674C25.4539 24.7674 26.6829 25.9076 26.6829 27.375V28.5116Z" fill="#374151"></path></g><defs><clipPath id="clip0_581_81880"><rect width="48" height="48" fill="white"></rect></clipPath></defs></svg>