<svg xmlns="http://www.w3.org/2000/svg" width="40" height="40" viewBox="0 0 40 40" fill="none"><rect x="0.5" y="0.5" width="39" height="39" rx="9.5" stroke="#D1D5DB"></rect><path d="M12.1176 12L12.1176 11L12.1176 12ZM25.8824 30L25.8217 30.9982C25.8419 30.9994 25.8621 31 25.8824 31V30ZM10 14.1176H9C9 14.1379 9.00061 14.1581 9.00184 14.1783L10 14.1176ZM26.7428 23.1442L26.3714 24.0726L26.3714 24.0726L26.7428 23.1442ZM21.9428 22.8012L21.0853 22.2867L21.9428 22.8012ZM24.0829 22.0802L24.4543 21.1518L24.4543 21.1518L24.0829 22.0802ZM19.7325 23.3704L20.2937 22.5428L20.2937 22.5428L19.7325 23.3704ZM17.1988 18.0572L17.7133 18.9147L17.1988 18.0572ZM16.6296 20.2675L15.8019 20.8288L15.8019 20.8288L16.6296 20.2675ZM17.9198 15.9171L18.8482 15.5457L17.9198 15.9171ZM16.8558 13.2572L17.7843 12.8858L17.7843 12.8858L16.8558 13.2572ZM22.1915 13.0185C21.6494 12.9127 21.1243 13.2664 21.0185 13.8085C20.9127 14.3506 21.2664 14.8757 21.8085 14.9815L22.1915 13.0185ZM24.5781 15.3719L23.871 16.079L23.871 16.079L24.5781 15.3719ZM24.9685 18.1415C25.0743 18.6836 25.5994 19.0373 26.1415 18.9315C26.6836 18.8257 27.0373 18.3006 26.9315 17.7585L24.9685 18.1415ZM22.1106 9.00613C21.5617 8.94507 21.0672 9.34055 21.0061 9.88945C20.9451 10.4383 21.3406 10.9328 21.8894 10.9939L22.1106 9.00613ZM27.4 12.5965L26.6929 13.3036L26.6929 13.3036L27.4 12.5965ZM29.0062 18.1115C29.0678 18.6604 29.5627 19.0554 30.1115 18.9938C30.6604 18.9322 31.0554 18.4373 30.9938 17.8885L29.0062 18.1115ZM12.1176 13H14.9989V11H12.1176V13ZM15.9274 13.6286L16.9913 16.2885L18.8482 15.5457L17.7843 12.8858L15.9274 13.6286ZM15.8019 20.8288C16.7014 22.1551 17.8449 23.2987 19.1712 24.1981L20.2937 22.5428C19.1771 21.7856 18.2144 20.8229 17.4572 19.7063L15.8019 20.8288ZM23.7115 23.0087L26.3714 24.0726L27.1142 22.2157L24.4543 21.1518L23.7115 23.0087ZM27 25.0011V27.8824H29V25.0011H27ZM27 27.8824C27 28.1788 26.8822 28.4631 26.6727 28.6727L28.0869 30.0869C28.6715 29.5022 29 28.7092 29 27.8824H27ZM26.6727 28.6727C26.4631 28.8822 26.1788 29 25.8824 29V31C26.7092 31 27.5022 30.6715 28.0869 30.0869L26.6727 28.6727ZM25.943 29.0018C22.0566 28.7657 18.391 27.1153 15.6379 24.3621L14.2237 25.7763C17.3222 28.8749 21.4477 30.7323 25.8217 30.9982L25.943 29.0018ZM15.6379 24.3621C12.8847 21.609 11.2343 17.9434 10.9982 14.057L9.00184 14.1783C9.26765 18.5523 11.1251 22.6778 14.2237 25.7763L15.6379 24.3621ZM11 14.1176C11 13.8212 11.1178 13.537 11.3274 13.3274L9.91314 11.9131C9.32847 12.4978 9 13.2908 9 14.1176H11ZM11.3274 13.3274C11.537 13.1178 11.8212 13 12.1176 13L12.1176 11C11.2908 11 10.4978 11.3285 9.91314 11.9131L11.3274 13.3274ZM26.3714 24.0726C26.751 24.2245 27 24.5922 27 25.0011H29C29 23.7744 28.2531 22.6713 27.1142 22.2157L26.3714 24.0726ZM22.8003 23.3157C22.9876 23.0036 23.3736 22.8735 23.7115 23.0087L24.4543 21.1518C23.205 20.652 21.7776 21.1329 21.0853 22.2867L22.8003 23.3157ZM19.1712 24.1981C20.4716 25.0798 22.0875 24.5037 22.8003 23.3157L21.0853 22.2867C20.8655 22.653 20.4936 22.6783 20.2937 22.5428L19.1712 24.1981ZM16.6843 17.1997C15.4963 17.9125 14.9202 19.5284 15.8019 20.8288L17.4572 19.7063C17.3217 19.5064 17.347 19.1345 17.7133 18.9147L16.6843 17.1997ZM16.9913 16.2885C17.1265 16.6264 16.9964 17.0124 16.6843 17.1997L17.7133 18.9147C18.8671 18.2224 19.348 16.795 18.8482 15.5457L16.9913 16.2885ZM14.9989 13C15.4078 13 15.7755 13.249 15.9274 13.6286L17.7843 12.8858C17.3287 11.7469 16.2256 11 14.9989 11V13ZM21.8085 14.9815C22.5899 15.1339 23.308 15.5161 23.871 16.079L25.2852 14.6648C24.4408 13.8204 23.3636 13.2472 22.1915 13.0185L21.8085 14.9815ZM23.871 16.079C24.4339 16.642 24.8161 17.3601 24.9685 18.1415L26.9315 17.7585C26.7028 16.5864 26.1296 15.5092 25.2852 14.6648L23.871 16.079ZM21.8894 10.9939C23.7057 11.1959 25.3996 12.0103 26.6929 13.3036L28.1071 11.8894C26.4929 10.2752 24.3784 9.25838 22.1106 9.00613L21.8894 10.9939ZM26.6929 13.3036C27.9862 14.5969 28.8021 16.2923 29.0062 18.1115L30.9938 17.8885C30.7391 15.619 29.7212 13.5035 28.1071 11.8894L26.6929 13.3036Z" fill="#374151"></path></svg>