<svg xmlns="http://www.w3.org/2000/svg" width="48" height="48" viewBox="0 0 48 48" fill="none"><rect width="48" height="48" rx="10" fill="#F3F4F6"></rect><path d="M16.9999 19.3337H23.9999M14.7894 14.667H33.2104C34.5669 14.667 35.6666 15.7117 35.6666 17.0003V31.0003C35.6666 32.289 34.5669 33.3337 33.2104 33.3337H14.7894C13.4329 33.3337 12.3333 32.289 12.3333 31.0003V17.0003C12.3333 15.7117 13.4329 14.667 14.7894 14.667ZM19.4561 24.0003H28.5438C29.9003 24.0003 30.9999 25.045 30.9999 26.3337C30.9999 27.6223 29.9003 28.667 28.5438 28.667H19.4561C18.0996 28.667 16.9999 27.6223 16.9999 26.3337C16.9999 25.045 18.0996 24.0003 19.4561 24.0003Z" stroke="#374151" stroke-width="2" stroke-linecap="round"></path></svg>