<svg xmlns="http://www.w3.org/2000/svg" width="48" height="48" viewBox="0 0 48 48" fill="none"><g clip-path="url(#clip0_581_81886)"><path d="M38 0H10C4.47715 0 0 4.47715 0 10V38C0 43.5228 4.47715 48 10 48H38C43.5228 48 48 43.5228 48 38V10C48 4.47715 43.5228 0 38 0Z" fill="#F3F4F6"></path><path d="M31.2602 21.4547C31.0659 17.6413 27.8925 14.6047 24.0004 14.6047C19.9829 14.6047 16.7311 17.8401 16.7311 21.8256L16.7269 22.2664C16.7047 23.3071 16.5704 24.4331 15.852 25.4883L15.8488 25.4925C15.5339 25.9492 15.3087 26.214 15.0503 26.6176C14.8501 26.9303 14.7172 27.2068 14.6563 27.4711L14.6343 27.5839C14.4863 28.5513 15.1048 29.3171 16.1873 29.7642L16.6232 29.9355C21.1799 31.6579 27.3654 31.6013 31.8135 29.7642L32.0105 29.6765C32.9062 29.2508 33.4322 28.5868 33.3854 27.7626L33.3665 27.5839C33.3208 27.2851 33.1793 26.975 32.9505 26.6176C32.6921 26.214 32.4669 25.9492 32.152 25.4925L32.1489 25.4883C31.3276 24.2822 31.2698 22.9834 31.2697 21.8256L31.2602 21.4547ZM27.1797 32.5891C25.0891 32.8554 22.9106 32.8555 20.82 32.5891C21.4331 33.6582 22.6194 34.3953 24.0004 34.3953C25.3812 34.3953 26.5666 33.6579 27.1797 32.5891ZM32.8845 22.2382C32.9063 23.1716 33.021 23.9108 33.4776 24.5836L33.8726 25.13C34.0235 25.3374 34.1817 25.5581 34.3075 25.7547C34.5888 26.1941 34.8638 26.7242 34.9583 27.3416L34.9813 27.5286C35.1644 29.3149 33.9714 30.5173 32.6938 31.1286L32.4297 31.2466C31.3751 31.6822 30.2346 32.0233 29.046 32.2746C28.4303 34.4365 26.3938 36 24.0004 36C21.6069 36 19.5693 34.4367 18.9537 32.2746C17.9412 32.0605 16.9639 31.7815 16.0448 31.4336L15.5711 31.2466C14.1556 30.6619 12.7342 29.3565 13.0425 27.3416L13.0865 27.1138C13.2063 26.5929 13.4472 26.1391 13.6933 25.7547C13.9451 25.3614 14.3244 24.8719 14.5232 24.5836C14.9799 23.9108 15.0945 23.1716 15.1163 22.2382L15.1216 21.8256C15.1216 16.9488 19.099 13 24.0004 13C28.9018 13 32.8792 16.9488 32.8792 21.8256L32.8845 22.2382Z" fill="#374151"></path></g><defs><clipPath id="clip0_581_81886"><rect width="48" height="48" fill="white"></rect></clipPath></defs></svg>