<svg xmlns="http://www.w3.org/2000/svg" width="48" height="48" viewBox="0 0 48 48" fill="none"><rect width="48" height="48" rx="10" fill="#F3F4F6"></rect><path d="M15.4045 31.8881C15.5522 31.6816 15.8515 31.3817 16.0334 31.1998C16.9085 30.3247 18.0955 29.833 19.3332 29.833H28.6665C29.9042 29.833 31.0912 30.3247 31.9664 31.1998C32.1655 31.399 32.4178 31.6814 32.5759 31.9097M35.6668 23.9997C35.6668 30.443 30.4435 35.6663 24.0002 35.6663C17.5568 35.6663 12.3335 30.443 12.3335 23.9997C12.3335 17.5564 17.5568 12.333 24.0002 12.333C30.4435 12.333 35.6668 17.5564 35.6668 23.9997ZM28.6668 21.6663C28.6668 24.2437 26.5775 26.333 24.0002 26.333C21.4228 26.333 19.3335 24.2437 19.3335 21.6663C19.3335 19.089 21.4228 16.9997 24.0002 16.9997C26.5775 16.9997 28.6668 19.089 28.6668 21.6663Z" stroke="#374151" stroke-width="2" stroke-linecap="round" stroke-linejoin="round"></path></svg>