<svg xmlns="http://www.w3.org/2000/svg" width="48" height="48" viewBox="0 0 48 48" fill="none"><g clip-path="url(#clip0_581_81883)"><path d="M38 0H10C4.47715 0 0 4.47715 0 10V38C0 43.5228 4.47715 48 10 48H38C43.5228 48 48 43.5228 48 38V10C48 4.47715 43.5228 0 38 0Z" fill="#F3F4F6"></path><path d="M33.4651 25.0223C33.4651 22.9534 33.4639 21.4676 33.3322 20.3267C33.2185 19.3414 33.0151 18.6919 32.6837 18.1972L32.5338 17.9944C32.468 17.9133 32.3993 17.8347 32.3279 17.7595L32.1051 17.5437C31.6801 17.1616 31.1402 16.9201 30.3094 16.7753C29.6712 16.664 28.8957 16.6152 27.9142 16.5944L26.8609 16.5814H26.0465C25.6227 16.5814 25.2791 16.2378 25.2791 15.814C25.2791 15.3901 25.6227 15.0465 26.0465 15.0465H26.8689L27.9371 15.0595C28.9555 15.0808 29.827 15.1323 30.5732 15.2624C31.588 15.4393 32.4274 15.7695 33.1314 16.4025L33.2892 16.5494C33.4435 16.6995 33.5888 16.8593 33.7249 17.0271L33.8488 17.187C34.4448 17.9962 34.7203 18.9654 34.8571 20.1508C35.0013 21.4002 35 22.9903 35 25.0223C35 27.0542 35.0013 28.6443 34.8571 29.8937C34.7203 31.0788 34.4446 32.0474 33.8488 32.8566L33.7249 33.0164C33.5886 33.1845 33.4437 33.3448 33.2892 33.4951L33.1314 33.642C32.3244 34.3674 31.3408 34.6936 30.1245 34.8491C28.9294 35.0019 27.411 35 25.4839 35H25.0233C22.8754 35 21.1832 35.002 19.863 34.8151C18.6007 34.6365 17.5801 34.2734 16.7663 33.5011L16.6064 33.3412C15.8031 32.4956 15.4274 31.4323 15.2414 30.1046C15.058 28.7954 15.0474 27.1309 15.0465 25.0233C15.0465 24.5995 15.3902 24.256 15.814 24.2558C16.2377 24.2558 16.5812 24.5995 16.5814 25.0233C16.5822 27.1637 16.5958 28.7104 16.7613 29.8917C16.9241 31.0539 17.2221 31.7611 17.7186 32.284L17.9194 32.4748C18.4085 32.8959 19.0619 33.1514 20.0779 33.2952C21.2655 33.4633 22.8298 33.4651 25.0233 33.4651H25.4839C27.4516 33.4651 28.8544 33.4637 29.9297 33.3262C30.9837 33.1914 31.6204 32.9365 32.1051 32.5008L32.3279 32.284C32.3992 32.2089 32.4681 32.1311 32.5338 32.0501L32.6837 31.8463C33.0148 31.3517 33.2186 30.7027 33.3322 29.7178C33.4639 28.5769 33.4651 27.091 33.4651 25.0223ZM28.093 28.3488C28.5169 28.3488 28.8605 28.6924 28.8605 29.1163C28.8605 29.5401 28.5169 29.8837 28.093 29.8837H21.9535C21.5296 29.8837 21.186 29.5401 21.186 29.1163C21.186 28.6924 21.5296 28.3488 21.9535 28.3488H28.093ZM16.0698 21.9535V13.7674C16.0698 13.3436 16.4134 13 16.8372 13C17.2611 13 17.6047 13.3436 17.6047 13.7674V21.9535C17.6047 22.3773 17.2611 22.7209 16.8372 22.7209C16.4134 22.7209 16.0698 22.3773 16.0698 21.9535ZM19.1395 19.907V15.814C19.1395 15.3901 19.4831 15.0465 19.907 15.0465C20.3308 15.0465 20.6744 15.3901 20.6744 15.814V19.907C20.6744 20.3308 20.3308 20.6744 19.907 20.6744C19.4831 20.6744 19.1395 20.3308 19.1395 19.907ZM13 18.8837V16.8372C13 16.4134 13.3436 16.0698 13.7674 16.0698C14.1913 16.0698 14.5349 16.4134 14.5349 16.8372V18.8837C14.5349 19.3076 14.1913 19.6512 13.7674 19.6512C13.3436 19.6512 13 19.3076 13 18.8837ZM22.2093 18.8837V16.8372C22.2093 16.4134 22.5529 16.0698 22.9767 16.0698C23.4006 16.0698 23.7442 16.4134 23.7442 16.8372V18.8837C23.7442 19.3076 23.4006 19.6512 22.9767 19.6512C22.5529 19.6512 22.2093 19.3076 22.2093 18.8837Z" fill="#374151"></path></g><defs><clipPath id="clip0_581_81883"><rect width="48" height="48" fill="white"></rect></clipPath></defs></svg>