<svg xmlns="http://www.w3.org/2000/svg" width="40" height="40" viewBox="0 0 40 40" fill="none"><rect y="0.0078125" width="40" height="40" rx="10" fill="#FCC001"></rect><path d="M12 21.0078V18.0078C12 15.8861 12.8429 13.8512 14.3431 12.351C15.8434 10.8507 17.8783 10.0078 20 10.0078C22.1217 10.0078 24.1566 10.8507 25.6569 12.351C27.1571 13.8512 28 15.8861 28 18.0078V21.0078M12 21.0078C12 20.4774 12.2107 19.9687 12.5858 19.5936C12.9609 19.2185 13.4696 19.0078 14 19.0078H15C15.5304 19.0078 16.0391 19.2185 16.4142 19.5936C16.7893 19.9687 17 20.4774 17 21.0078V24.0078C17 24.5382 16.7893 25.047 16.4142 25.422C16.0391 25.7971 15.5304 26.0078 15 26.0078H14C13.4696 26.0078 12.9609 25.7971 12.5858 25.422C12.2107 25.047 12 24.5382 12 24.0078V21.0078ZM28 21.0078C28 20.4774 27.7893 19.9687 27.4142 19.5936C27.0391 19.2185 26.5304 19.0078 26 19.0078H25C24.4696 19.0078 23.9609 19.2185 23.5858 19.5936C23.2107 19.9687 23 20.4774 23 21.0078V24.0078C23 24.5382 23.2107 25.047 23.5858 25.422C23.9609 25.7971 24.4696 26.0078 25 26.0078H26M28 21.0078V24.0078C28 24.5382 27.7893 25.047 27.4142 25.422C27.0391 25.7971 26.5304 26.0078 26 26.0078M26 26.0078C26 27.6648 23.314 29.0078 20 29.0078" stroke="#482300" stroke-width="2" stroke-linecap="round" stroke-linejoin="round"></path></svg>