<svg width="28" height="29" viewBox="0 0 28 29" fill="none" xmlns="http://www.w3.org/2000/svg">
<path d="M10.3333 2.68555C10.3333 2.13326 9.88562 1.68555 9.33333 1.68555C8.78105 1.68555 8.33333 2.13326 8.33333 2.68555H10.3333ZM8.33333 7.35221C8.33333 7.9045 8.78105 8.35221 9.33333 8.35221C9.88562 8.35221 10.3333 7.9045 10.3333 7.35221H8.33333ZM19.6667 2.68555C19.6667 2.13326 19.219 1.68555 18.6667 1.68555C18.1144 1.68555 17.6667 2.13326 17.6667 2.68555H19.6667ZM17.6667 7.35221C17.6667 7.9045 18.1144 8.35221 18.6667 8.35221C19.219 8.35221 19.6667 7.9045 19.6667 7.35221H17.6667ZM14 18.0189C13.4477 18.0189 13 18.4666 13 19.0189C13 19.5712 13.4477 20.0189 14 20.0189V18.0189ZM14.0117 20.0189C14.564 20.0189 15.0117 19.5712 15.0117 19.0189C15.0117 18.4666 14.564 18.0189 14.0117 18.0189V20.0189ZM18.6667 18.0189C18.1144 18.0189 17.6667 18.4666 17.6667 19.0189C17.6667 19.5712 18.1144 20.0189 18.6667 20.0189V18.0189ZM18.6783 20.0189C19.2306 20.0189 19.6783 19.5712 19.6783 19.0189C19.6783 18.4666 19.2306 18.0189 18.6783 18.0189V20.0189ZM9.33333 18.0189C8.78105 18.0189 8.33333 18.4666 8.33333 19.0189C8.33333 19.5712 8.78105 20.0189 9.33333 20.0189V18.0189ZM9.345 20.0189C9.89728 20.0189 10.345 19.5712 10.345 19.0189C10.345 18.4666 9.89728 18.0189 9.345 18.0189V20.0189ZM7 6.01888H21V4.01888H7V6.01888ZM23.5 8.51888V22.5189H25.5V8.51888H23.5ZM21 25.0189H7V27.0189H21V25.0189ZM4.5 22.5189V8.51888H2.5V22.5189H4.5ZM7 25.0189C5.61929 25.0189 4.5 23.8996 4.5 22.5189H2.5C2.5 25.0042 4.51472 27.0189 7 27.0189V25.0189ZM23.5 22.5189C23.5 23.8996 22.3807 25.0189 21 25.0189V27.0189C23.4853 27.0189 25.5 25.0042 25.5 22.5189H23.5ZM21 6.01888C22.3807 6.01888 23.5 7.13817 23.5 8.51888H25.5C25.5 6.0336 23.4853 4.01888 21 4.01888V6.01888ZM7 4.01888C4.51472 4.01888 2.5 6.0336 2.5 8.51888H4.5C4.5 7.13817 5.61929 6.01888 7 6.01888V4.01888ZM3.5 13.0189H24.5V11.0189H3.5V13.0189ZM8.33333 2.68555V7.35221H10.3333V2.68555H8.33333ZM17.6667 2.68555V7.35221H19.6667V2.68555H17.6667ZM14 20.0189H14.0117V18.0189H14V20.0189ZM18.6667 20.0189H18.6783V18.0189H18.6667V20.0189ZM9.33333 20.0189H9.345V18.0189H9.33333V20.0189Z" fill="#FCC001"/>
</svg>
