<svg width="28" height="28" viewBox="0 0 28 28" fill="none" xmlns="http://www.w3.org/2000/svg">
<path d="M23.5 12.832C23.5 13.3843 23.9477 13.832 24.5 13.832C25.0523 13.832 25.5 13.3843 25.5 12.832H23.5ZM10.3333 2.33203C10.3333 1.77975 9.88562 1.33203 9.33333 1.33203C8.78105 1.33203 8.33333 1.77975 8.33333 2.33203H10.3333ZM8.33333 6.9987C8.33333 7.55098 8.78105 7.9987 9.33333 7.9987C9.88562 7.9987 10.3333 7.55098 10.3333 6.9987H8.33333ZM19.6667 2.33203C19.6667 1.77975 19.219 1.33203 18.6667 1.33203C18.1144 1.33203 17.6667 1.77975 17.6667 2.33203H19.6667ZM17.6667 6.9987C17.6667 7.55098 18.1144 7.9987 18.6667 7.9987C19.219 7.9987 19.6667 7.55098 19.6667 6.9987H17.6667ZM14 26.6654C14.5523 26.6654 15 26.2176 15 25.6654C15 25.1131 14.5523 24.6654 14 24.6654V26.6654ZM19.8333 23.332V24.332V23.332ZM23.3333 19.832H24.3333H23.3333ZM23.7931 25.206C24.1836 25.5966 24.8168 25.5966 25.2073 25.206C25.5979 24.8155 25.5979 24.1823 25.2073 23.7918L23.7931 25.206ZM7 5.66536H9.33333V3.66536H7V5.66536ZM9.33333 5.66536H18.6667V3.66536H9.33333V5.66536ZM18.6667 5.66536H21V3.66536H18.6667V5.66536ZM23.5 8.16536V11.6654H25.5V8.16536H23.5ZM23.5 11.6654V12.832H25.5V11.6654H23.5ZM4.5 22.1654V11.6654H2.5V22.1654H4.5ZM4.5 11.6654V8.16536H2.5V11.6654H4.5ZM7 24.6654C5.61929 24.6654 4.5 23.5461 4.5 22.1654H2.5C2.5 24.6506 4.51472 26.6654 7 26.6654V24.6654ZM21 5.66536C22.3807 5.66536 23.5 6.78465 23.5 8.16536H25.5C25.5 5.68008 23.4853 3.66536 21 3.66536V5.66536ZM7 3.66536C4.51472 3.66536 2.5 5.68008 2.5 8.16536H4.5C4.5 6.78465 5.61929 5.66536 7 5.66536V3.66536ZM3.5 12.6654H24.5V10.6654H3.5V12.6654ZM8.33333 2.33203V4.66536H10.3333V2.33203H8.33333ZM8.33333 4.66536V6.9987H10.3333V4.66536H8.33333ZM17.6667 2.33203V4.66536H19.6667V2.33203H17.6667ZM17.6667 4.66536V6.9987H19.6667V4.66536H17.6667ZM14 24.6654H7V26.6654H14V24.6654ZM15.3333 19.832C15.3333 21.0255 15.8074 22.1701 16.6514 23.014L18.0656 21.5998C17.5967 21.131 17.3333 20.4951 17.3333 19.832H15.3333ZM16.6514 23.014C17.4953 23.8579 18.6399 24.332 19.8333 24.332V22.332C19.1703 22.332 18.5344 22.0686 18.0656 21.5998L16.6514 23.014ZM19.8333 24.332C21.0268 24.332 22.1714 23.8579 23.0153 23.014L21.6011 21.5998C21.1323 22.0686 20.4964 22.332 19.8333 22.332V24.332ZM23.0153 23.014C23.8592 22.1701 24.3333 21.0255 24.3333 19.832H22.3333C22.3333 20.4951 22.0699 21.131 21.6011 21.5998L23.0153 23.014ZM24.3333 19.832C24.3333 18.6386 23.8592 17.494 23.0153 16.6501L21.6011 18.0643C22.0699 18.5331 22.3333 19.169 22.3333 19.832H24.3333ZM23.0153 16.6501C22.1714 15.8061 21.0268 15.332 19.8333 15.332V17.332C20.4964 17.332 21.1323 17.5954 21.6011 18.0643L23.0153 16.6501ZM19.8333 15.332C18.6399 15.332 17.4953 15.8061 16.6514 16.6501L18.0656 18.0643C18.5344 17.5954 19.1703 17.332 19.8333 17.332V15.332ZM16.6514 16.6501C15.8074 17.494 15.3333 18.6386 15.3333 19.832H17.3333C17.3333 19.169 17.5967 18.5331 18.0656 18.0643L16.6514 16.6501ZM21.6011 23.014L23.7931 25.206L25.2073 23.7918L23.0153 21.5998L21.6011 23.014Z" fill="#FCC001"/>
</svg>
