<svg width="28" height="28" viewBox="0 0 28 28" fill="none" xmlns="http://www.w3.org/2000/svg">
<path d="M18.9468 9.05167C19.5976 9.70178 20.1139 10.4738 20.4662 11.3236C20.8185 12.1734 20.9998 13.0843 20.9998 14.0042C20.9998 14.9241 20.8185 15.835 20.4662 16.6847C20.1139 17.5345 19.5976 18.3066 18.9468 18.9567M9.05345 18.945C8.40261 18.2949 7.8863 17.5229 7.53403 16.6731C7.18176 15.8233 7.00044 14.9124 7.00044 13.9925C7.00044 13.0726 7.18176 12.1617 7.53403 11.3119C7.8863 10.4621 8.40261 9.69011 9.05345 9.04M22.2484 5.75C24.4356 7.93782 25.6643 10.9048 25.6643 13.9983C25.6643 17.0919 24.4356 20.0588 22.2484 22.2467M5.75178 22.2467C3.56462 20.0588 2.33594 17.0919 2.33594 13.9983C2.33594 10.9048 3.56462 7.93782 5.75178 5.75M16.3334 13.9987C16.3334 15.2874 15.2887 16.332 14 16.332C12.7114 16.332 11.6667 15.2874 11.6667 13.9987C11.6667 12.71 12.7114 11.6654 14 11.6654C15.2887 11.6654 16.3334 12.71 16.3334 13.9987Z" stroke="#FCC001" stroke-width="2" stroke-linecap="round" stroke-linejoin="round"/>
</svg>
