<svg width="28" height="28" viewBox="0 0 28 28" fill="none" xmlns="http://www.w3.org/2000/svg">
<path d="M21.2922 12.25H22.9136C25.0736 12.25 25.7157 12.5598 25.6637 14.0978C25.5776 16.6453 24.4288 19.6054 19.8333 20.4167" stroke="#FCC001" stroke-width="2" stroke-linecap="round"/>
<path d="M6.93723 24.0476C3.00042 21.0208 2.42038 16.7275 2.33492 12.2475C2.298 10.3122 2.85973 9.91406 5.43563 9.91406L17.8975 9.91406C20.4734 9.91406 21.0352 10.3122 20.9982 12.2475C20.9128 16.7275 20.3328 21.0208 16.3959 24.0476C15.2756 24.909 14.3303 25.0807 12.7392 25.0807H10.594C9.00292 25.0807 8.05759 24.909 6.93723 24.0476Z" stroke="#FCC001" stroke-width="2" stroke-linecap="round"/>
<path d="M13.1936 2.91406C12.5557 3.30911 11.668 4.66406 11.668 6.41406M8.79616 4.66406C8.79616 4.66406 8.1665 5.2474 8.1665 6.41406M16.3346 4.66406C16.0157 4.86158 15.7498 5.83073 15.7498 6.41406" stroke="#FCC001" stroke-width="1.5" stroke-linecap="round" stroke-linejoin="round"/>
</svg>
