<svg width="28" height="28" viewBox="0 0 28 28" fill="none" xmlns="http://www.w3.org/2000/svg">
<path d="M9.33333 2.33203V6.9987M18.6667 2.33203V6.9987M7 25.6654H21C22.933 25.6654 24.5 24.0984 24.5 22.1654V8.16536C24.5 6.23237 22.933 4.66536 21 4.66536H7C5.067 4.66536 3.5 6.23237 3.5 8.16536V22.1654C3.5 24.0984 5.067 25.6654 7 25.6654ZM14 11.6654L15.3715 14.4443L18.4383 14.89L16.2191 17.0531L16.743 20.1074L14 18.6654L11.257 20.1074L11.7809 17.0531L9.56174 14.89L12.6285 14.4443L14 11.6654Z" stroke="#FCC001" stroke-width="2" stroke-linecap="round" stroke-linejoin="round"/>
</svg>
