<svg width="28" height="28" viewBox="0 0 28 28" fill="none" xmlns="http://www.w3.org/2000/svg">
<path d="M23.1666 12.832C23.1666 12.2797 22.7189 11.832 22.1666 11.832C21.6143 11.832 21.1666 12.2797 21.1666 12.832H23.1666ZM6.83325 12.832C6.83325 12.2797 6.38554 11.832 5.83325 11.832C5.28097 11.832 4.83325 12.2797 4.83325 12.832H6.83325ZM13.9999 2.33203L13.9999 1.33203L13.9999 2.33203ZM9.33325 24.6654C8.78097 24.6654 8.33325 25.1131 8.33325 25.6654C8.33325 26.2176 8.78097 26.6654 9.33325 26.6654V24.6654ZM18.6666 26.6654C19.2189 26.6654 19.6666 26.2176 19.6666 25.6654C19.6666 25.1131 19.2189 24.6654 18.6666 24.6654V26.6654ZM12.9999 25.6654C12.9999 26.2176 13.4476 26.6654 13.9999 26.6654C14.5522 26.6654 14.9999 26.2176 14.9999 25.6654H12.9999ZM21.1666 12.832C21.1666 16.7901 17.958 19.9987 13.9999 19.9987V21.9987C19.0625 21.9987 23.1666 17.8946 23.1666 12.832H21.1666ZM13.9999 19.9987C10.0419 19.9987 6.83325 16.7901 6.83325 12.832H4.83325C4.83325 17.8946 8.93731 21.9987 13.9999 21.9987V19.9987ZM11.4999 5.83203C11.4999 5.16899 11.7633 4.53311 12.2322 4.06426L10.8179 2.65005C9.97402 3.49396 9.49992 4.63856 9.49992 5.83203H11.4999ZM12.2322 4.06426C12.701 3.59542 13.3369 3.33203 13.9999 3.33203L13.9999 1.33203C12.8064 1.33203 11.6619 1.80614 10.8179 2.65005L12.2322 4.06426ZM13.9999 3.33203C14.663 3.33203 15.2988 3.59542 15.7677 4.06426L17.1819 2.65005C16.338 1.80614 15.1934 1.33203 13.9999 1.33203V3.33203ZM15.7677 4.06426C16.2365 4.53311 16.4999 5.16899 16.4999 5.83203H18.4999C18.4999 4.63856 18.0258 3.49396 17.1819 2.65005L15.7677 4.06426ZM16.4999 5.83203V12.832H18.4999V5.83203H16.4999ZM16.4999 12.832C16.4999 13.4951 16.2365 14.131 15.7677 14.5998L17.1819 16.014C18.0258 15.1701 18.4999 14.0255 18.4999 12.832H16.4999ZM15.7677 14.5998C15.2988 15.0686 14.663 15.332 13.9999 15.332V17.332C15.1934 17.332 16.338 16.8579 17.1819 16.014L15.7677 14.5998ZM13.9999 15.332C13.3369 15.332 12.701 15.0686 12.2322 14.5998L10.8179 16.014C11.6619 16.8579 12.8064 17.332 13.9999 17.332V15.332ZM12.2322 14.5998C11.7633 14.131 11.4999 13.4951 11.4999 12.832H9.49992C9.49992 14.0255 9.97402 15.1701 10.8179 16.014L12.2322 14.5998ZM11.4999 12.832V5.83203H9.49992V12.832H11.4999ZM9.33325 26.6654H18.6666V24.6654H9.33325V26.6654ZM12.9999 20.9987V25.6654H14.9999V20.9987H12.9999Z" fill="#FCC001"/>
</svg>
