<svg width="28" height="28" viewBox="0 0 28 28" fill="none" xmlns="http://www.w3.org/2000/svg">
<path d="M10.9685 22.4721L10.7161 23.4397L10.9685 22.4721ZM9.3819 20.5488L8.42897 20.8519L9.3819 20.5488ZM9.76752 21.5653L8.91232 22.0836L9.76752 21.5653ZM18.6162 20.5488L19.5691 20.8519L18.6162 20.5488ZM18.2305 21.5653L19.0857 22.0836L18.2305 21.5653ZM17.0296 22.4721L17.2819 23.4397L17.0296 22.4721ZM18.3675 19.4447L18.7436 18.5181L18.3675 19.4447ZM18.7486 19.9987L19.7476 19.953L18.7486 19.9987ZM9.63059 19.4447L9.25447 18.5181L9.63059 19.4447ZM9.24944 19.9987L8.25049 19.953L9.24944 19.9987ZM17.9811 22.7221C18.085 22.1797 17.7296 21.6557 17.1871 21.5518C16.6447 21.4479 16.1208 21.8033 16.0168 22.3457L17.9811 22.7221ZM16.8696 23.2089L15.8875 23.0207V23.0207L16.8696 23.2089ZM11.1283 23.2089L12.1104 23.0207L12.1104 23.0207L11.1283 23.2089ZM11.9811 22.3457C11.8772 21.8033 11.3532 21.4479 10.8108 21.5518C10.2684 21.6557 9.91291 22.1797 10.0168 22.7221L11.9811 22.3457ZM12.6124 25.5605L12.2869 26.5061L12.6124 25.5605ZM11.4988 24.6076L10.6201 25.085L11.4988 24.6076ZM16.4991 24.6076L17.3778 25.085L17.3778 25.085L16.4991 24.6076ZM15.3856 25.5605L15.711 26.5061H15.711L15.3856 25.5605ZM10.1706 20.4023H17.8275V18.4023H10.1706V20.4023ZM15.9872 21.5339H12.0109V23.5339H15.9872V21.5339ZM12.0109 21.5339C11.4172 21.5339 11.3038 21.5261 11.2208 21.5045L10.7161 23.4397C11.1073 23.5418 11.5307 23.5339 12.0109 23.5339V21.5339ZM8.42897 20.8519C8.58257 21.3347 8.70471 21.741 8.91232 22.0836L10.6227 21.047C10.5684 20.9574 10.5208 20.8301 10.3348 20.2456L8.42897 20.8519ZM11.2208 21.5045C10.9846 21.4429 10.7669 21.2848 10.6227 21.047L8.91232 22.0836C9.31679 22.7509 9.95913 23.2423 10.7161 23.4397L11.2208 21.5045ZM17.6632 20.2456C17.4773 20.83 17.4296 20.9574 17.3753 21.047L19.0857 22.0836C19.2933 21.741 19.4155 21.3347 19.5691 20.8519L17.6632 20.2456ZM15.9872 23.5339C16.4673 23.5339 16.8908 23.5418 17.2819 23.4397L16.7772 21.5045C16.6943 21.5261 16.5808 21.5339 15.9872 21.5339V23.5339ZM17.3753 21.047C17.2312 21.2848 17.0135 21.4429 16.7772 21.5045L17.2819 23.4397C18.0389 23.2423 18.6813 22.7509 19.0857 22.0836L17.3753 21.047ZM17.8275 20.4023C17.9018 20.4023 17.959 20.4024 18.008 20.4029C18.0571 20.4035 18.0869 20.4046 18.1057 20.4057C18.1246 20.4069 18.12 20.4075 18.1016 20.4042C18.0811 20.4004 18.0413 20.3915 17.9913 20.3712L18.7436 18.5181C18.5433 18.4368 18.3548 18.4173 18.2289 18.4095C18.1052 18.4019 17.96 18.4023 17.8275 18.4023V20.4023ZM19.5691 20.8519C19.6115 20.7187 19.6564 20.5788 19.6874 20.4581C19.7188 20.3357 19.7569 20.158 19.7476 19.953L17.7497 20.0444C17.7456 19.9563 17.7634 19.9093 17.7503 19.9605C17.7446 19.9825 17.7355 20.0147 17.7202 20.0646C17.705 20.1143 17.6867 20.1719 17.6632 20.2456L19.5691 20.8519ZM17.9913 20.3712C17.8313 20.3063 17.7552 20.1665 17.7497 20.0444L19.7476 19.953C19.7193 19.3361 19.3444 18.762 18.7436 18.5181L17.9913 20.3712ZM10.1706 18.4023C10.038 18.4023 9.89281 18.4019 9.76911 18.4095C9.64321 18.4173 9.45475 18.4368 9.25447 18.5181L10.0067 20.3712C9.95671 20.3915 9.91692 20.4004 9.89648 20.4042C9.87808 20.4075 9.8734 20.4069 9.89235 20.4057C9.91115 20.4046 9.94097 20.4035 9.99009 20.4029C10.0391 20.4024 10.0962 20.4023 10.1706 20.4023V18.4023ZM10.3348 20.2456C10.3114 20.1719 10.2931 20.1143 10.2778 20.0646C10.2626 20.0147 10.2534 19.9825 10.2478 19.9605C10.2346 19.9093 10.2524 19.9563 10.2484 20.0444L8.25049 19.953C8.24111 20.158 8.27921 20.3357 8.31066 20.4581C8.34166 20.5788 8.38656 20.7187 8.42897 20.8519L10.3348 20.2456ZM9.25447 18.5181C8.65361 18.762 8.27872 19.3361 8.25049 19.953L10.2484 20.0444C10.2428 20.1665 10.1667 20.3063 10.0067 20.3712L9.25447 18.5181ZM16.0168 22.3457L15.8875 23.0207L17.8518 23.3971L17.9811 22.7221L16.0168 22.3457ZM12.1104 23.0207L11.9811 22.3457L10.0168 22.7221L10.1462 23.3971L12.1104 23.0207ZM13.999 24.6655C13.2009 24.6655 13.0459 24.6522 12.9378 24.615L12.2869 26.5061C12.7889 26.6788 13.3549 26.6655 13.999 26.6655V24.6655ZM10.1462 23.3971C10.2739 24.0638 10.3692 24.6231 10.6201 25.085L12.3775 24.1303C12.3116 24.0089 12.2655 23.8301 12.1104 23.0207L10.1462 23.3971ZM12.9378 24.615C12.7101 24.5366 12.5069 24.3684 12.3775 24.1303L10.6201 25.085C10.9807 25.7487 11.5714 26.2598 12.2869 26.5061L12.9378 24.615ZM15.8875 23.0207C15.7324 23.8301 15.6863 24.0089 15.6204 24.1303L17.3778 25.085C17.6287 24.6231 17.724 24.0638 17.8518 23.3971L15.8875 23.0207ZM13.999 26.6655C14.643 26.6655 15.209 26.6788 15.711 26.5061L15.0602 24.615C14.9521 24.6522 14.797 24.6655 13.999 24.6655V26.6655ZM15.6204 24.1303C15.491 24.3684 15.2879 24.5366 15.0602 24.615L15.711 26.5061C16.4265 26.2598 17.0172 25.7487 17.3778 25.085L15.6204 24.1303Z" fill="#FCC001"/>
<path d="M7.10411 17.4974C6.66264 16.505 6.4165 15.401 6.4165 14.2376C6.4165 9.91678 9.81168 6.41406 13.9998 6.41406C18.188 6.41406 21.5832 9.91678 21.5832 14.2376C21.5832 15.401 21.337 16.505 20.8956 17.4974" stroke="#FCC001" stroke-width="1.5" stroke-linecap="round"/>
<path d="M14 2.33203V3.4987" stroke="#FCC001" stroke-width="1.5" stroke-linecap="round" stroke-linejoin="round"/>
<path d="M25.6665 14L24.4998 14" stroke="#FCC001" stroke-width="1.5" stroke-linecap="round" stroke-linejoin="round"/>
<path d="M3.5 14L2.33333 14" stroke="#FCC001" stroke-width="1.5" stroke-linecap="round" stroke-linejoin="round"/>
<path d="M22.2485 5.75L21.4236 6.57496" stroke="#FCC001" stroke-width="1.5" stroke-linecap="round" stroke-linejoin="round"/>
<path d="M6.57617 6.57422L5.75121 5.74926" stroke="#FCC001" stroke-width="1.5" stroke-linecap="round" stroke-linejoin="round"/>
</svg>
