<svg xmlns="http://www.w3.org/2000/svg" width="18" height="18" viewBox="0 0 18 18" fill="none"><path d="M14.083 8.16699C14.083 4.89942 11.4345 2.25018 8.16699 2.25C4.89931 2.25 2.25 4.89931 2.25 8.16699C2.25018 11.4345 4.89942 14.083 8.16699 14.083C9.7704 14.0829 11.2235 13.444 12.2891 12.4082C12.3064 12.3864 12.3246 12.3649 12.3447 12.3447C12.3649 12.3246 12.3864 12.3064 12.4082 12.2891C13.444 11.2235 14.0829 9.7704 14.083 8.16699ZM15.583 8.16699C15.5829 9.9448 14.9571 11.576 13.9141 12.8535L17.0303 15.9697L17.082 16.0273C17.3221 16.3219 17.3048 16.7557 17.0303 17.0303C16.7557 17.3048 16.3219 17.3221 16.0273 17.082L15.9697 17.0303L12.8535 13.9141C11.576 14.9571 9.9448 15.5829 8.16699 15.583C4.07099 15.583 0.750176 12.263 0.75 8.16699C0.75 4.07088 4.07088 0.75 8.16699 0.75C12.263 0.750176 15.583 4.07099 15.583 8.16699Z" fill="#4B5563"></path></svg>