<svg width="21" height="21" viewBox="0 0 21 21" fill="none" xmlns="http://www.w3.org/2000/svg">
<path fill-rule="evenodd" clip-rule="evenodd" d="M10.834 16.1567C13.8464 16.1567 16.2885 13.7146 16.2885 10.7021C16.2885 7.68968 13.8464 5.2476 10.834 5.2476C7.82152 5.2476 5.37944 7.68968 5.37944 10.7021C5.37944 13.7146 7.82152 16.1567 10.834 16.1567ZM10.834 14.3385C12.8423 14.3385 14.4703 12.7104 14.4703 10.7021C14.4703 8.69384 12.8423 7.06578 10.834 7.06578C8.82568 7.06578 7.19762 8.69384 7.19762 10.7021C7.19762 12.7104 8.82568 14.3385 10.834 14.3385Z" fill="#9CA3AF"/>
<path d="M16.2885 4.33851C15.7864 4.33851 15.3794 4.74553 15.3794 5.2476C15.3794 5.74968 15.7864 6.15669 16.2885 6.15669C16.7906 6.15669 17.1976 5.74968 17.1976 5.2476C17.1976 4.74553 16.7906 4.33851 16.2885 4.33851Z" fill="#9CA3AF"/>
<path fill-rule="evenodd" clip-rule="evenodd" d="M1.42849 3.68038C0.833984 4.84718 0.833984 6.37459 0.833984 9.42942V11.9749C0.833984 15.0297 0.833984 16.5571 1.42849 17.7239C1.95144 18.7502 2.78588 19.5847 3.81222 20.1076C4.97901 20.7021 6.50643 20.7021 9.56126 20.7021H12.1067C15.1615 20.7021 16.689 20.7021 17.8557 20.1076C18.8821 19.5847 19.7165 18.7502 20.2394 17.7239C20.834 16.5571 20.834 15.0297 20.834 11.9749V9.42942C20.834 6.37459 20.834 4.84718 20.2394 3.68038C19.7165 2.65404 18.8821 1.8196 17.8557 1.29666C16.689 0.702148 15.1615 0.702148 12.1067 0.702148H9.56126C6.50643 0.702148 4.97901 0.702148 3.81222 1.29666C2.78588 1.8196 1.95144 2.65404 1.42849 3.68038ZM12.1067 2.52033H9.56126C8.00384 2.52033 6.94512 2.52175 6.12678 2.5886C5.32966 2.65373 4.92202 2.77178 4.63766 2.91667C3.95343 3.2653 3.39714 3.82159 3.0485 4.50582C2.90361 4.79018 2.78557 5.19782 2.72044 5.99495C2.65358 6.81329 2.65217 7.872 2.65217 9.42942V11.9749C2.65217 13.5323 2.65358 14.591 2.72044 15.4093C2.78557 16.2065 2.90361 16.6141 3.0485 16.8985C3.39714 17.5827 3.95343 18.139 4.63766 18.4876C4.92202 18.6325 5.32966 18.7506 6.12678 18.8157C6.94512 18.8825 8.00384 18.884 9.56126 18.884H12.1067C13.6642 18.884 14.7228 18.8825 15.5412 18.8157C16.3383 18.7506 16.746 18.6325 17.0303 18.4876C17.7145 18.139 18.2708 17.5827 18.6194 16.8985C18.7643 16.6141 18.8824 16.2065 18.9475 15.4093C19.0143 14.591 19.0158 13.5323 19.0158 11.9749V9.42942C19.0158 7.872 19.0143 6.81329 18.9475 5.99495C18.8824 5.19782 18.7643 4.79018 18.6194 4.50582C18.2708 3.82159 17.7145 3.2653 17.0303 2.91667C16.746 2.77178 16.3383 2.65373 15.5412 2.5886C14.7228 2.52175 13.6642 2.52033 12.1067 2.52033Z" fill="#9CA3AF"/>
</svg>
