<svg width="564" height="53" viewBox="0 0 564 53" fill="none" xmlns="http://www.w3.org/2000/svg">
<path d="M229.735 52.8744H242.963L262.834 17.028L255.955 4.63233L229.735 52.8744Z" fill="black"/>
<path d="M215.918 0.0297813L197.248 24.0551L178.591 0.0297813H164.789L191.532 32.6208L191.569 38.756V52.9782H202.933V38.756L202.985 32.5766L229.713 0.0297813H215.918Z" fill="black"/>
<path d="M153.328 17.2051C153.402 12.7491 151.708 8.44049 148.622 5.2219C145.322 1.75289 140.675 -0.110507 135.887 0.132544H105.359C100.579 -0.0810465 95.9385 1.77499 92.6242 5.2219C89.5308 8.49205 87.8368 12.8375 87.9178 17.3377V35.7507C87.881 40.2213 89.575 44.5374 92.661 47.778C95.9312 51.2692 100.571 53.1546 105.351 52.9337H135.873C140.66 53.1841 145.307 51.2913 148.563 47.778C151.612 44.5815 153.313 40.3245 153.306 35.9053L153.328 17.2051ZM141.919 33.4085C142.045 35.9643 141.058 38.4537 139.216 40.2287C137.375 41.9522 134.937 42.8802 132.418 42.8139H108.901C106.39 42.8728 103.952 41.9448 102.118 40.2287C100.299 38.4905 99.3192 36.0526 99.4223 33.5411V19.3557C99.3854 16.8147 100.343 14.3621 102.088 12.5208C103.908 10.7605 106.368 9.81779 108.901 9.90617H132.404C137.397 9.64839 141.654 13.4783 141.912 18.4719C141.927 18.7591 141.927 19.0464 141.912 19.3336V33.4085H141.919Z" fill="black"/>
<path d="M75.0667 52.9774L56.7789 34.6749L54.8271 32.7157H60.8813C65.1384 32.8704 69.2408 31.0954 72.0543 27.8915C74.9562 24.7319 76.5323 20.5853 76.4734 16.2987C76.5397 12.0564 74.9562 7.9613 72.0543 4.86791C69.1819 1.69351 65.0426 -0.0373109 60.7708 0.146819H32.2012V10.1267H58.6349C60.4467 10.0751 62.1923 10.8411 63.3854 12.211C65.7718 14.9951 65.7497 19.1122 63.3339 21.8668C62.1186 23.2515 60.351 24.0248 58.5097 23.9953H32.9672L59.6145 52.9774H75.0667Z" fill="black"/>
<path d="M323.832 0.140875H312.431V52.9788H360.747V42.8296H323.832V0.111414V0.140875Z" fill="black"/>
<path d="M287.751 52.846H300.95L272.226 0.000669479H258.46L287.751 52.846Z" fill="#FFB800"/>
<path d="M12.2338 36.207C14.5096 36.126 16.7192 36.9656 18.3616 38.5418C21.5729 41.9445 21.5729 47.2695 18.3616 50.6723C16.7118 52.2337 14.5023 53.0733 12.2338 52.9923H8.55119C6.28271 53.066 4.08051 52.2337 2.43071 50.6796C0.802996 49.1035 -0.0808289 46.9086 0.000188318 44.6475C-0.0881941 42.3643 0.79563 40.1548 2.42334 38.5565C4.06578 36.9803 6.26798 36.1334 8.54383 36.207H12.2264H12.2338ZM8.55119 40.2284C7.16653 40.1695 5.81133 40.5819 4.69182 41.3995C3.70489 42.1802 3.1525 43.3881 3.21878 44.6475C3.1525 45.8849 3.70489 47.078 4.69182 47.8293C5.8187 48.6321 7.1739 49.0298 8.55119 48.9709H12.2338C13.6258 49.0298 14.9957 48.6321 16.13 47.8293C17.1169 47.0633 17.6693 45.8628 17.603 44.6181C17.6693 43.366 17.1169 42.1581 16.13 41.3847C14.9957 40.5746 13.6258 40.1621 12.2338 40.2284H8.55119Z" fill="#FFB800"/>
<path d="M20.4464 16.7561V20.7923L6.87974 28.894V28.975H20.4317V33.0111H0.324707V28.975L13.884 20.8733V20.7923H0.324707V16.7561H20.4464Z" fill="#FFB800"/>
<path d="M11.6082 1.54593V9.00688H17.3899V0.168633H20.4833V13.0725H0.324707V0.161268H3.44019V8.99951H8.49272V1.54593H11.6082Z" fill="#FFB800"/>
<path d="M463.725 43.9279V53H413.59V43.9279H463.725Z" fill="#FFB800"/>
<path d="M449.924 0C463.635 0.000340413 467.373 18.8685 454.697 24.0957L413.644 41.0234V31.3506L451.288 15.8281C454.909 14.3347 453.842 8.9437 449.924 8.94336H413.644V0H449.924Z" fill="#FFB800"/>
<path d="M508.443 0C515.358 1.72864e-07 520.963 5.60562 520.963 12.5205V15.3564H512.02V12.5205C512.02 10.5448 510.419 8.94336 508.443 8.94336H479.825C477.849 8.94338 476.248 10.5448 476.248 12.5205V40.2441C476.248 42.2198 477.849 43.8222 479.825 43.8223H508.443C510.419 43.8223 512.02 42.2198 512.02 40.2441V37.3203H520.963V40.2441C520.963 47.159 515.358 52.7646 508.443 52.7646H479.825C472.91 52.7646 467.304 47.159 467.304 40.2441V12.5205C467.304 5.60563 472.91 1.81481e-05 479.825 0H508.443Z" fill="#FFB800"/>
<path d="M558.508 33.3199C557.552 33.3199 556.69 33.1536 555.922 32.821C555.161 32.4884 554.532 32.0137 554.036 31.3969C553.546 30.7741 553.235 30.0363 553.102 29.1837L555.369 28.839C555.563 29.613 555.959 30.2117 556.557 30.635C557.162 31.0583 557.858 31.2699 558.644 31.2699C559.109 31.2699 559.548 31.1974 559.959 31.0522C560.37 30.9071 560.703 30.6955 560.957 30.4173C561.217 30.1391 561.347 29.7975 561.347 29.3923C561.347 29.2109 561.316 29.0446 561.256 28.8934C561.196 28.7362 561.105 28.5971 560.984 28.4762C560.869 28.3553 560.718 28.2464 560.53 28.1497C560.349 28.0469 560.137 27.9592 559.895 27.8866L556.521 26.8888C556.231 26.8042 555.916 26.6923 555.578 26.5532C555.245 26.4081 554.928 26.2116 554.625 25.9637C554.329 25.7097 554.084 25.3892 553.891 25.0022C553.703 24.6091 553.61 24.1254 553.61 23.5509C553.61 22.7104 553.821 22.0059 554.244 21.4375C554.674 20.863 555.248 20.4336 555.968 20.1494C556.693 19.8652 557.498 19.7261 558.381 19.7322C559.276 19.7382 560.074 19.8924 560.775 20.1948C561.477 20.4911 562.063 20.9235 562.535 21.4919C563.007 22.0603 563.339 22.7466 563.533 23.5509L561.183 23.9591C561.087 23.4995 560.899 23.1095 560.621 22.789C560.349 22.4624 560.013 22.2145 559.614 22.0452C559.221 21.8759 558.801 21.7852 558.353 21.7731C557.918 21.767 557.513 21.8335 557.138 21.9726C556.769 22.1057 556.47 22.2992 556.24 22.5531C556.016 22.8071 555.904 23.1034 555.904 23.442C555.904 23.7625 556.001 24.0256 556.195 24.2312C556.388 24.4307 556.627 24.591 556.911 24.7119C557.201 24.8268 557.495 24.9236 557.791 25.0022L560.131 25.6553C560.452 25.7399 560.812 25.8548 561.211 25.9999C561.61 26.1451 561.994 26.3476 562.363 26.6077C562.731 26.8677 563.034 27.2093 563.27 27.6326C563.512 28.0559 563.632 28.5941 563.632 29.2472C563.632 29.9245 563.49 30.5201 563.206 31.0341C562.928 31.542 562.55 31.9653 562.072 32.304C561.595 32.6426 561.047 32.8966 560.431 33.0659C559.82 33.2352 559.179 33.3199 558.508 33.3199Z" fill="black"/>
<path d="M536.256 33.0477V19.9861H541.653C541.78 19.9861 541.944 19.9922 542.143 20.0043C542.343 20.0103 542.527 20.0285 542.696 20.0587C543.452 20.1736 544.075 20.4245 544.565 20.8116C545.061 21.1986 545.427 21.6884 545.662 22.281C545.904 22.8675 546.025 23.5206 546.025 24.2402C546.025 25.3045 545.756 26.2206 545.218 26.9886C544.68 27.7505 543.854 28.2222 542.742 28.4036L541.808 28.4852H538.442V33.0477H536.256ZM543.758 33.0477L541.182 27.7324L543.404 27.2426L546.234 33.0477H543.758ZM538.442 26.4444H541.563C541.684 26.4444 541.82 26.4383 541.971 26.4262C542.122 26.4141 542.261 26.3899 542.388 26.3537C542.751 26.263 543.035 26.1027 543.241 25.8729C543.452 25.6431 543.6 25.3831 543.685 25.0929C543.776 24.8026 543.821 24.5184 543.821 24.2402C543.821 23.9621 543.776 23.6778 543.685 23.3876C543.6 23.0913 543.452 22.8282 543.241 22.5985C543.035 22.3687 542.751 22.2084 542.388 22.1177C542.261 22.0814 542.122 22.0603 541.971 22.0542C541.82 22.0421 541.684 22.0361 541.563 22.0361H538.442V26.4444Z" fill="black"/>
<path d="M517.734 33.0477L521.852 19.9861H525.054L529.172 33.0477H526.923L523.186 21.3286H523.676L519.984 33.0477H517.734ZM520.029 30.2177V28.1768H526.887V30.2177H520.029Z" fill="black"/>
<path d="M502.586 33.0477V19.9861H511.022V22.0361H504.772V25.2561H509.934V27.3061H504.772V30.9978H511.022V33.0477H502.586Z" fill="black"/>
<path d="M489.23 33.0477V27.6961L484.786 19.9861H487.334L490.337 25.1926L493.33 19.9861H495.879L491.443 27.6961V33.0477H489.23Z" fill="black"/>
</svg>
