<svg width="21" height="21" viewBox="0 0 21 21" fill="none" xmlns="http://www.w3.org/2000/svg">
<g clip-path="url(#clip0_0_459)">
<path d="M14.463 0.702148H11.0924V14.3253C11.0924 15.9485 9.7961 17.2819 8.18282 17.2819C6.56955 17.2819 5.27318 15.9485 5.27318 14.3253C5.27318 12.7311 6.54074 11.4268 8.09641 11.3688V7.94854C4.6682 8.00648 1.9026 10.8181 1.9026 14.3253C1.9026 17.8616 4.72582 20.7021 8.21164 20.7021C11.6974 20.7021 14.5206 17.8326 14.5206 14.3253V7.33982C15.7882 8.26737 17.3438 8.81809 18.9859 8.84709V5.42679C16.4508 5.33983 14.463 3.25287 14.463 0.702148Z" fill="#9CA3AF"/>
</g>
<defs>
<clipPath id="clip0_0_459">
<rect x="0.235931" y="0.702148" width="20" height="20" rx="6" fill="white"/>
</clipPath>
</defs>
</svg>
