<svg width="29" height="21" viewBox="0 0 29 21" fill="none" xmlns="http://www.w3.org/2000/svg">
<path fill-rule="evenodd" clip-rule="evenodd" d="M11.203 14.3903L11.2021 6.40082L18.8309 10.4094L11.203 14.3903ZM27.9536 5.01636C27.9536 5.01636 27.6774 3.05698 26.8312 2.19413C25.7574 1.06115 24.5539 1.05581 24.0024 0.990055C20.0512 0.702144 14.1245 0.702148 14.1245 0.702148H14.1121C14.1121 0.702148 8.18535 0.702144 4.23417 0.990055C3.68182 1.05581 2.47917 1.06115 1.40447 2.19413C0.558291 3.05698 0.282991 5.01636 0.282991 5.01636C0.282991 5.01636 0.000640869 7.31787 0.000640869 9.61849V11.776C0.000640869 14.0776 0.282991 16.3782 0.282991 16.3782C0.282991 16.3782 0.558291 18.3376 1.40447 19.2004C2.47917 20.3334 3.89005 20.2978 4.51828 20.416C6.77711 20.6346 14.1183 20.7021 14.1183 20.7021C14.1183 20.7021 20.0512 20.6933 24.0024 20.4054C24.5539 20.3387 25.7574 20.3334 26.8312 19.2004C27.6774 18.3376 27.9536 16.3782 27.9536 16.3782C27.9536 16.3782 28.2359 14.0776 28.2359 11.776V9.61849C28.2359 7.31787 27.9536 5.01636 27.9536 5.01636Z" fill="#9CA3AF"/>
</svg>
