<svg xmlns="http://www.w3.org/2000/svg" width="20" height="22" viewBox="0 0 20 22" fill="none"><path d="M18 10H2V18C2 19.1046 2.89543 20 4 20H16C17.1046 20 18 19.1046 18 18V10ZM8 15C8 14.4696 8.21087 13.961 8.58594 13.5859C8.96101 13.2109 9.46957 13 10 13C10.5304 13 11.039 13.2109 11.4141 13.5859C11.7891 13.961 12 14.4696 12 15C12 15.5304 11.7891 16.039 11.4141 16.4141C11.039 16.7891 10.5304 17 10 17C9.46957 17 8.96101 16.7891 8.58594 16.4141C8.21086 16.039 8 15.5304 8 15ZM13 5V4H7V5C7 5.55228 6.55228 6 6 6C5.44772 6 5 5.55228 5 5V4H4C2.89543 4 2 4.89543 2 6V8H18V6C18 4.89543 17.1046 4 16 4H15V5C15 5.55228 14.5523 6 14 6C13.4477 6 13 5.55228 13 5ZM20 18C20 20.2091 18.2091 22 16 22H4C1.79086 22 0 20.2091 0 18V6C2.57706e-07 3.79086 1.79086 2 4 2H5V1C5 0.447715 5.44772 0 6 0C6.55228 0 7 0.447715 7 1V2H13V1C13 0.447715 13.4477 0 14 0C14.5523 0 15 0.447715 15 1V2H16C18.2091 2 20 3.79086 20 6V18Z" fill="#FCC001"></path></svg>